<?xml version="1.0" encoding="UTF-8"?>
<svg width="10px" height="18px" viewBox="0 0 10 18" version="1.1" xmlns="http://www.w3.org/2000/svg" xmlns:xlink="http://www.w3.org/1999/xlink">
    <!-- Generator: Sketch 49 (51002) - http://www.bohemiancoding.com/sketch -->
    <title>scale_arrow</title>
    <desc>Created with Sketch.</desc>
    <defs></defs>
    <g id="scale_arrow" stroke="none" stroke-width="1" fill="none" fill-rule="evenodd">
        <path d="M-3.98807162,9.40861487 C-3.98807162,9.76043404 -3.69375262,10.0472262 -3.3327665,10.0472262 L10.0784411,10.0766309 L7.77373986,12.3146852 C7.51923501,12.5673448 7.51923501,12.971885 7.77373986,13.2198812 L8.39242127,13.8227407 C8.65171179,14.070737 9.06680262,14.070737 9.32137394,13.8227407 L13.7988381,9.45971673 C13.9260573,9.33575099 13.9912621,9.17149963 13.9912621,9.00873793 C13.9912621,8.84448656 13.9260573,8.68166009 13.7988381,8.55775912 L9.32137394,4.19473511 C9.06201695,3.94673887 8.64692612,3.94673887 8.39242127,4.19473511 L7.77373986,4.79765938 C7.51923501,5.05031891 7.51923501,5.45479437 7.77373986,5.70279062 L10.0784411,7.94855237 L-3.33589049,7.91914775 C-3.70013352,7.91914775 -3.99126207,8.20593995 -3.99126207,8.55775912 L-3.98807162,9.40861487 Z" id="Fill-1" fill="#4A4A4A" transform="translate(5.000000, 9.008738) rotate(-270.000000) translate(-5.000000, -9.008738) "></path>
    </g>
</svg>